HIERARCHY
ROOT Hips
{
	OFFSET 0.000000 87.230942 0.000000
	CHANNELS 6 Xposition Yposition Zposition Xrotation Yrotation Zrotation
	JOINT Pelvis
	{
		OFFSET 0.000000 0.000000 0.000000
		CHANNELS 3 Xrotation Yrotation Zrotation
		JOINT LeftUpLeg
		{
			OFFSET 12.017000 -9.376404 -2.439400
			CHANNELS 3 Xrotation Yrotation Zrotation
			JOINT LeftLeg
			{
				OFFSET -0.007312 -32.846973 2.110600
				CHANNELS 3 Xrotation Yrotation Zrotation
				JOINT LeftFoot
				{
					OFFSET 0.007312 -32.065170 -0.570400
					CHANNELS 3 Xrotation Yrotation Zrotation
					JOINT LeftToeBase
					{
						OFFSET 0.728300 -11.045900 13.180700
						CHANNELS 3 Xrotation Yrotation Zrotation
						End Site
						{
							OFFSET 0.000000 17.212589 0.000000
						}
					}
				}
				JOINT LeftPantLeg
				{
					OFFSET 0.002788 -16.709013 -3.143600
					CHANNELS 3 Xrotation Yrotation Zrotation
					End Site
					{
						OFFSET -0.605125 24.528742 0.000000
					}
				}
			}
			JOINT Left_Butt
			{
				OFFSET -6.630234 1.326584 -3.183700
				CHANNELS 3 Xrotation Yrotation Zrotation
				End Site
				{
					OFFSET -0.498041 20.188049 0.000000
				}
			}
		}
		JOINT RightUpLeg
		{
			OFFSET -11.717000 -9.376404 -2.439400
			CHANNELS 3 Xrotation Yrotation Zrotation
			JOINT RightLeg
			{
				OFFSET -0.003241 -32.846912 2.110600
				CHANNELS 3 Xrotation Yrotation Zrotation
				JOINT RightFoot
				{
					OFFSET 0.003241 -32.065136 -0.570500
					CHANNELS 3 Xrotation Yrotation Zrotation
					JOINT RightToeBase
					{
						OFFSET -0.728300 -11.045901 13.180700
						CHANNELS 3 Xrotation Yrotation Zrotation
						End Site
						{
							OFFSET 0.000000 17.212593 0.000000
						}
					}
				}
				JOINT RightPantLeg
				{
					OFFSET 0.008142 -16.708982 -3.143700
					CHANNELS 3 Xrotation Yrotation Zrotation
					End Site
					{
						OFFSET 0.605088 24.528715 0.000000
					}
				}
			}
			JOINT Right_Butt
			{
				OFFSET 6.630732 1.326584 -3.183700
				CHANNELS 3 Xrotation Yrotation Zrotation
				End Site
				{
					OFFSET 0.498015 20.188240 0.000000
				}
			}
		}
	}
	JOINT Spine
	{
		OFFSET -0.062400 7.848404 3.918300
		CHANNELS 3 Xrotation Yrotation Zrotation
		JOINT Spine1
		{
			OFFSET -0.072800 11.422302 0.713400
			CHANNELS 3 Xrotation Yrotation Zrotation
			JOINT Spine2
			{
				OFFSET -0.083200 13.054001 -1.931600
				CHANNELS 3 Xrotation Yrotation Zrotation
				JOINT Neck
				{
					OFFSET -0.092200 14.121796 -5.138800
					CHANNELS 3 Xrotation Yrotation Zrotation
					JOINT Head
					{
						OFFSET 0.000200 10.447403 -0.842000
						CHANNELS 3 Xrotation Yrotation Zrotation
						JOINT Visor
						{
							OFFSET 0.457100 25.671204 16.550400
							CHANNELS 3 Xrotation Yrotation Zrotation
							End Site
							{
								OFFSET 0.000000 26.061493 0.000000
							}
						}
						JOINT HairMidA
						{
							OFFSET 0.459400 31.585403 8.437400
							CHANNELS 3 Xrotation Yrotation Zrotation
							End Site
							{
								OFFSET 0.000000 26.061493 0.000000
							}
						}
						JOINT HairMidB
						{
							OFFSET 0.464000 33.309204 -8.389700
							CHANNELS 3 Xrotation Yrotation Zrotation
							End Site
							{
								OFFSET 0.000000 26.061493 0.000000
							}
						}
						JOINT HairMidC
						{
							OFFSET 0.466600 27.991196 -17.375099
							CHANNELS 3 Xrotation Yrotation Zrotation
							End Site
							{
								OFFSET 0.000000 26.061493 0.000000
							}
						}
						JOINT HairMidD
						{
							OFFSET 0.467700 17.888092 -21.169500
							CHANNELS 3 Xrotation Yrotation Zrotation
							End Site
							{
								OFFSET 0.000000 26.061493 0.000000
							}
						}
						JOINT HairMidE
						{
							OFFSET 5.325700 3.514603 -14.369699
							CHANNELS 3 Xrotation Yrotation Zrotation
							End Site
							{
								OFFSET 0.000000 26.061493 0.000000
							}
						}
						JOINT HairMidF
						{
							OFFSET -4.394100 3.514603 -14.372400
							CHANNELS 3 Xrotation Yrotation Zrotation
							End Site
							{
								OFFSET 0.000000 26.061493 0.000000
							}
						}
						JOINT HairLeftA
						{
							OFFSET 15.319900 25.746506 2.623300
							CHANNELS 3 Xrotation Yrotation Zrotation
							End Site
							{
								OFFSET 0.000000 26.061493 0.000000
							}
						}
						JOINT HairLeftB
						{
							OFFSET 12.619500 29.289398 -8.731499
							CHANNELS 3 Xrotation Yrotation Zrotation
							End Site
							{
								OFFSET 0.000000 26.061493 0.000000
							}
						}
						JOINT HairLeftC
						{
							OFFSET 15.714800 15.959900 2.909800
							CHANNELS 3 Xrotation Yrotation Zrotation
							End Site
							{
								OFFSET 0.000000 26.061493 0.000000
							}
						}
						JOINT HairLeftD
						{
							OFFSET 16.101700 18.437408 -7.553200
							CHANNELS 3 Xrotation Yrotation Zrotation
							End Site
							{
								OFFSET 0.000000 26.061493 0.000000
							}
						}
						JOINT HairLeftE
						{
							OFFSET 9.731900 17.915009 -18.316799
							CHANNELS 3 Xrotation Yrotation Zrotation
							End Site
							{
								OFFSET 0.000000 26.061493 0.000000
							}
						}
						JOINT HairLeftF
						{
							OFFSET 11.204300 4.953598 -9.668100
							CHANNELS 3 Xrotation Yrotation Zrotation
							End Site
							{
								OFFSET 0.000000 26.061493 0.000000
							}
						}
						JOINT HairRightA
						{
							OFFSET -14.397900 25.746307 2.615100
							CHANNELS 3 Xrotation Yrotation Zrotation
							End Site
							{
								OFFSET 0.000000 26.061493 0.000000
							}
						}
						JOINT HairRightB
						{
							OFFSET -11.691200 29.289200 -8.738199
							CHANNELS 3 Xrotation Yrotation Zrotation
							End Site
							{
								OFFSET 0.000000 26.061493 0.000000
							}
						}
						JOINT HairRightC
						{
							OFFSET -14.792900 15.959702 2.901400
							CHANNELS 3 Xrotation Yrotation Zrotation
							End Site
							{
								OFFSET 0.000000 26.061493 0.000000
							}
						}
						JOINT HairRightD
						{
							OFFSET -15.174000 18.437195 -7.561900
							CHANNELS 3 Xrotation Yrotation Zrotation
							End Site
							{
								OFFSET 0.000000 26.061493 0.000000
							}
						}
						JOINT HairRightE
						{
							OFFSET -8.798200 17.914902 -18.322001
							CHANNELS 3 Xrotation Yrotation Zrotation
							End Site
							{
								OFFSET 0.000000 26.061493 0.000000
							}
						}
						JOINT HairRightF
						{
							OFFSET -10.275200 4.953506 -9.674099
							CHANNELS 3 Xrotation Yrotation Zrotation
							End Site
							{
								OFFSET 0.000000 26.061493 0.000000
							}
						}
					}
				}
				JOINT LeftShoulder
				{
					OFFSET 5.133500 7.341202 -1.867600
					CHANNELS 3 Xrotation Yrotation Zrotation
					JOINT LeftArm
					{
						OFFSET 8.072663 0.936867 -2.176600
						CHANNELS 3 Xrotation Yrotation Zrotation
						JOINT LeftForeArm
						{
							OFFSET 31.271999 0.000000 0.000000
							CHANNELS 3 Xrotation Yrotation Zrotation
							JOINT LeftHand
							{
								OFFSET 31.771030 0.000000 0.000000
								CHANNELS 3 Xrotation Yrotation Zrotation
								JOINT LeftHandThumb1
								{
									OFFSET 2.886520 -2.557846 4.416640
									CHANNELS 3 Xrotation Yrotation Zrotation
									JOINT LeftHandThumb2
									{
										OFFSET 2.371025 -1.368912 1.368911
										CHANNELS 3 Xrotation Yrotation Zrotation
										JOINT LeftHandThumb3
										{
											OFFSET 2.243378 -1.295212 1.295213
											CHANNELS 3 Xrotation Yrotation Zrotation
											End Site
											{
												OFFSET -0.332611 2.876945 0.020015
											}
										}
									}
								}
								JOINT LeftHandIndex1
								{
									OFFSET 8.568985 -0.641945 3.119977
									CHANNELS 3 Xrotation Yrotation Zrotation
									JOINT LeftHandIndex2
									{
										OFFSET 3.348503 0.000000 0.000000
										CHANNELS 3 Xrotation Yrotation Zrotation
										JOINT LeftHandIndex3
										{
											OFFSET 3.314552 0.000000 0.000000
											CHANNELS 3 Xrotation Yrotation Zrotation
											End Site
											{
												OFFSET -1.032898 3.075485 0.678796
											}
										}
									}
								}
								JOINT LeftHandMiddle1
								{
									OFFSET 8.124603 0.000000 0.000000
									CHANNELS 3 Xrotation Yrotation Zrotation
									JOINT LeftHandMiddle2
									{
										OFFSET 4.166275 0.000000 0.000000
										CHANNELS 3 Xrotation Yrotation Zrotation
										JOINT LeftHandMiddle3
										{
											OFFSET 3.018135 0.000000 0.000000
											CHANNELS 3 Xrotation Yrotation Zrotation
											End Site
											{
												OFFSET -1.032700 2.767982 0.617226
											}
										}
									}
								}
								JOINT LeftHandRing1
								{
									OFFSET 8.571686 -0.031357 -2.884048
									CHANNELS 3 Xrotation Yrotation Zrotation
									JOINT LeftHandRing2
									{
										OFFSET 3.671181 0.000000 0.000000
										CHANNELS 3 Xrotation Yrotation Zrotation
										JOINT LeftHandRing3
										{
											OFFSET 2.728851 0.000000 0.000000
											CHANNELS 3 Xrotation Yrotation Zrotation
											End Site
											{
												OFFSET -0.815796 2.539223 0.577389
											}
										}
									}
								}
								JOINT LeftHandPinky1
								{
									OFFSET 7.854515 -0.675232 -5.213020
									CHANNELS 3 Xrotation Yrotation Zrotation
									JOINT LeftHandPinky2
									{
										OFFSET 3.068596 0.000000 0.000000
										CHANNELS 3 Xrotation Yrotation Zrotation
										JOINT LeftHandPinky3
										{
											OFFSET 2.396042 0.000000 0.000000
											CHANNELS 3 Xrotation Yrotation Zrotation
											End Site
											{
												OFFSET -0.524597 2.267998 0.567429
											}
										}
									}
								}
							}
							JOINT LeftSleeve
							{
								OFFSET 19.684509 -0.200119 0.476146
								CHANNELS 3 Xrotation Yrotation Zrotation
								End Site
								{
									OFFSET -0.031017 25.731133 -0.002868
								}
							}
						}
					}
				}
				JOINT RightShoulder
				{
					OFFSET -4.395900 7.341202 -1.870200
					CHANNELS 3 Xrotation Yrotation Zrotation
					JOINT RightArm
					{
						OFFSET -8.071453 0.936867 -2.181100
						CHANNELS 3 Xrotation Yrotation Zrotation
						JOINT RightForeArm
						{
							OFFSET -31.272011 0.000000 0.000000
							CHANNELS 3 Xrotation Yrotation Zrotation
							JOINT RightHand
							{
								OFFSET -31.771019 0.000000 0.000000
								CHANNELS 3 Xrotation Yrotation Zrotation
								JOINT RightHandThumb1
								{
									OFFSET -2.886520 -2.557808 4.416626
									CHANNELS 3 Xrotation Yrotation Zrotation
									JOINT RightHandThumb2
									{
										OFFSET -2.371056 -1.368927 1.368928
										CHANNELS 3 Xrotation Yrotation Zrotation
										JOINT RightHandThumb3
										{
											OFFSET -2.243362 -1.295204 1.295206
											CHANNELS 3 Xrotation Yrotation Zrotation
											End Site
											{
												OFFSET 0.332642 2.876938 0.020047
											}
										}
									}
								}
								JOINT RightHandIndex1
								{
									OFFSET -8.568993 -0.641953 3.120017
									CHANNELS 3 Xrotation Yrotation Zrotation
									JOINT RightHandIndex2
									{
										OFFSET -3.348518 0.000000 0.000000
										CHANNELS 3 Xrotation Yrotation Zrotation
										JOINT RightHandIndex3
										{
											OFFSET -3.314552 0.000000 0.000000
											CHANNELS 3 Xrotation Yrotation Zrotation
											End Site
											{
												OFFSET 1.032898 3.075478 0.678804
											}
										}
									}
								}
								JOINT RightHandMiddle1
								{
									OFFSET -8.124588 0.000000 0.000000
									CHANNELS 3 Xrotation Yrotation Zrotation
									JOINT RightHandMiddle2
									{
										OFFSET -4.166275 0.000000 0.000000
										CHANNELS 3 Xrotation Yrotation Zrotation
										JOINT RightHandMiddle3
										{
											OFFSET -3.018097 0.000000 0.000000
											CHANNELS 3 Xrotation Yrotation Zrotation
											End Site
											{
												OFFSET 1.032700 2.767937 0.617197
											}
										}
									}
								}
								JOINT RightHandRing1
								{
									OFFSET -8.571747 -0.031349 -2.884061
									CHANNELS 3 Xrotation Yrotation Zrotation
									JOINT RightHandRing2
									{
										OFFSET -3.671204 0.000000 0.000000
										CHANNELS 3 Xrotation Yrotation Zrotation
										JOINT RightHandRing3
										{
											OFFSET -2.728874 0.000000 0.000000
											CHANNELS 3 Xrotation Yrotation Zrotation
											End Site
											{
												OFFSET 0.815804 2.539261 0.577413
											}
										}
									}
								}
								JOINT RightHandPinky1
								{
									OFFSET -7.854561 -0.675247 -5.212970
									CHANNELS 3 Xrotation Yrotation Zrotation
									JOINT RightHandPinky2
									{
										OFFSET -3.068550 0.000000 0.000000
										CHANNELS 3 Xrotation Yrotation Zrotation
										JOINT RightHandPinky3
										{
											OFFSET -2.395981 0.000000 0.000000
											CHANNELS 3 Xrotation Yrotation Zrotation
											End Site
											{
												OFFSET 0.524605 2.267952 0.567413
											}
										}
									}
								}
							}
							JOINT RightSleeve
							{
								OFFSET -19.684753 -0.200165 0.476065
								CHANNELS 3 Xrotation Yrotation Zrotation
								End Site
								{
									OFFSET 0.031342 25.731255 -0.002917
								}
							}
						}
					}
				}
				JOINT Hood
				{
					OFFSET 0.369700 14.447800 -5.317800
					CHANNELS 3 Xrotation Yrotation Zrotation
					JOINT Hood1
					{
						OFFSET 0.001700 -5.553802 -5.895100
						CHANNELS 3 Xrotation Yrotation Zrotation
						JOINT Hood2
						{
							OFFSET -0.000200 -8.380501 0.763600
							CHANNELS 3 Xrotation Yrotation Zrotation
							End Site
							{
								OFFSET 0.000000 8.415215 0.000000
							}
						}
					}
				}
				JOINT Left_Breast
				{
					OFFSET 5.682500 3.120102 3.188800
					CHANNELS 3 Xrotation Yrotation Zrotation
					End Site
					{
						OFFSET 0.000000 10.528564 0.000000
					}
				}
				JOINT Right_Breast
				{
					OFFSET -4.947600 3.120102 3.185900
					CHANNELS 3 Xrotation Yrotation Zrotation
					End Site
					{
						OFFSET 0.000000 10.528564 0.000000
					}
				}
				JOINT Whistle
				{
					OFFSET 0.368200 11.471298 0.095400
					CHANNELS 3 Xrotation Yrotation Zrotation
					JOINT Whistle1
					{
						OFFSET -0.002000 -6.349899 7.479800
						CHANNELS 3 Xrotation Yrotation Zrotation
						JOINT Whistle2
						{
							OFFSET -0.001300 -8.217598 4.717600
							CHANNELS 3 Xrotation Yrotation Zrotation
							End Site
							{
								OFFSET 0.000000 9.475479 0.000000
							}
						}
					}
				}
			}
		}
		JOINT Belly
		{
			OFFSET 0.212400 1.593002 3.163700
			CHANNELS 3 Xrotation Yrotation Zrotation
			End Site
			{
				OFFSET 0.000000 7.496635 0.000000
			}
		}
	}
	JOINT FitGrandmaFacialAnim_Joint
	{
		OFFSET 1.150000 -86.211197 -1.220100
		CHANNELS 3 Xrotation Yrotation Zrotation
		End Site
		{
			OFFSET 0.000000 31.666618 0.000000
		}
	}
}
MOTION
Frames: 4
Frame Time: 0.016667
-3.130794 41.320831 75.795860 20.470787 -24.348926 -5.582787 -0.000000 0.000001 -0.000000 2.963166 5.367237 -0.690907 92.847235 -16.511977 -1.580349 19.026624 -3.265776 -27.205412 -0.000002 0.000000 0.000001 0.000001 0.000001 -0.000001 -0.000001 -0.000000 -0.000001 9.048904 10.155164 -11.716334 61.800078 11.600795 -14.430947 41.468787 6.719550 19.870350 -0.000000 -0.000000 0.000000 -0.000000 0.000000 0.000001 0.000002 -0.000001 -0.000003 5.371024 0.479452 0.588583 -5.387901 1.463344 2.228127 -5.408685 1.438957 2.129568 -64.248687 1.118122 14.686601 13.384896 14.022323 -18.292367 -0.000003 0.000000 -0.000001 -0.000003 0.000000 -0.000001 -0.000003 0.000000 -0.000001 -0.000003 0.000000 -0.000001 -0.000003 0.000000 -0.000001 -0.000003 0.000000 -0.000001 -0.000003 0.000000 -0.000001 -0.000003 0.000000 -0.000001 -0.000003 0.000000 -0.000001 -0.000003 0.000000 -0.000001 -0.000003 0.000000 -0.000001 -0.000003 0.000000 -0.000001 -0.000003 0.000000 -0.000001 -0.000003 0.000000 -0.000001 -0.000003 0.000000 -0.000001 -0.000003 0.000000 -0.000001 -0.000003 0.000000 -0.000001 -0.000003 0.000000 -0.000001 -0.000003 0.000000 -0.000001 -18.927009 2.423273 -16.209294 6.399258 13.475591 -49.024038 73.253301 -19.968941 30.111398 -15.141017 22.562584 -4.718109 -0.610185 -6.200729 8.854767 3.159786 21.613977 -1.887050 -0.000004 -0.000000 0.000001 13.340409 -1.006121 10.837308 -0.167773 0.303292 -30.950558 -0.000002 -0.000001 0.000002 8.497916 -0.330998 -0.760253 0.230680 0.660650 -29.746843 0.000000 0.000000 -0.000005 6.113358 3.149185 -16.056031 0.047042 0.321402 -29.970416 -0.000001 0.000001 0.000001 -5.635398 7.708989 -13.723647 0.223782 0.276068 -46.433310 0.000002 0.000000 -0.000001 -0.000000 -0.000000 0.000000 -18.645066 3.158391 16.723944 7.365364 -4.012500 58.411668 156.201918 144.055793 -156.460714 58.447138 -8.915751 -6.382671 0.630128 8.367628 -11.244495 -0.724226 -13.326706 3.592261 -0.000001 0.000001 0.000001 19.441935 11.173332 -14.416337 -0.119645 -0.321779 16.959150 -0.000000 -0.000001 0.000001 4.337928 2.446816 -5.888751 0.343348 -0.457188 25.813814 -0.000002 -0.000000 0.000000 -6.996716 -10.686230 4.645075 0.112041 -0.082038 25.079434 0.000001 -0.000001 -0.000001 -19.430148 -20.234244 4.912542 0.220288 -0.081649 35.768137 -0.000001 0.000001 -0.000002 0.000000 -0.000001 -0.000001 -0.000001 0.000002 -0.000000 -0.000001 0.000002 -0.000000 -0.000001 0.000002 -0.000000 -0.000001 0.000002 -0.000000 -0.000001 0.000002 -0.000000 -0.000001 0.000002 0.000001 -0.000001 0.000001 0.000000 -0.000001 0.000001 0.000000 -0.000000 0.000000 0.000000 -0.000000 0.000001 -0.000000 
-3.070140 41.062767 76.732384 21.515171 -24.496911 -5.582891 0.000002 -0.000001 0.000001 3.315981 4.649379 -1.185269 91.354224 -16.088039 -1.435684 19.362586 -3.356917 -27.300947 -0.000002 -0.000001 0.000000 -0.000000 -0.000001 -0.000001 0.000000 -0.000001 0.000000 8.986000 9.734025 -11.543171 61.400723 12.167515 -14.147936 40.749277 6.641605 20.067799 0.000000 -0.000002 0.000001 -0.000000 -0.000001 0.000001 -0.000000 -0.000002 -0.000002 5.326461 0.475296 0.684419 -5.487573 1.423598 2.351745 -5.507079 1.408917 2.254501 -65.359562 0.986975 14.866096 13.903057 14.117405 -18.447579 0.000000 0.000000 0.000001 0.000000 0.000000 0.000001 0.000000 0.000000 0.000001 0.000000 0.000000 0.000001 0.000000 0.000000 0.000001 0.000000 0.000000 0.000001 0.000000 0.000000 0.000001 0.000000 0.000000 0.000001 0.000000 0.000000 0.000001 0.000000 0.000000 0.000001 0.000000 0.000000 0.000001 0.000000 0.000000 0.000001 0.000000 0.000000 0.000001 0.000000 0.000000 0.000001 0.000000 0.000000 0.000001 0.000000 0.000000 0.000001 0.000000 0.000000 0.000001 0.000000 0.000000 0.000001 0.000000 0.000000 0.000001 -19.123842 2.643942 -15.817980 8.811192 13.503263 -48.194751 72.720116 -20.634420 30.098711 -17.435801 22.649365 -4.324287 -0.741613 -6.712985 8.749676 2.927781 21.139791 -1.929444 0.000001 -0.000001 0.000001 13.336275 -1.001470 12.126840 -0.169170 0.302484 -29.660974 -0.000001 0.000001 0.000001 8.519017 -0.343199 0.529223 0.223476 0.656137 -28.457186 -0.000001 -0.000001 0.000002 6.127084 3.134697 -14.767284 0.046570 0.312741 -28.680890 -0.000004 -0.000000 0.000000 -5.629756 7.701553 -12.434843 0.218847 0.271830 -45.143722 -0.000000 -0.000003 0.000003 -0.000001 0.000001 -0.000005 -18.793156 2.934419 16.971143 7.755222 -2.903526 58.461331 155.010132 141.216265 -155.160629 55.970214 -10.115517 -6.424043 0.621920 8.403532 -11.236678 -0.945194 -12.892622 3.661361 -0.000002 0.000004 -0.000000 19.440144 11.172213 -15.590175 -0.120693 -0.320715 15.784914 -0.000003 0.000002 -0.000000 4.357211 2.457264 -7.063561 0.337130 -0.452631 24.639614 -0.000004 -0.000003 0.000001 -6.986760 -10.676690 3.472829 0.112285 -0.074160 23.905268 -0.000000 -0.000001 0.000001 -19.426352 -20.229992 3.739692 0.216542 -0.077053 34.593901 0.000001 0.000001 -0.000000 0.000000 -0.000001 -0.000002 0.000000 -0.000000 -0.000001 0.000000 -0.000000 -0.000001 0.000000 -0.000000 -0.000001 0.000000 -0.000000 -0.000001 0.000000 -0.000000 -0.000001 0.000000 -0.000000 -0.000000 -0.000002 -0.000000 -0.000000 -0.000002 -0.000000 -0.000000 -0.000001 -0.000000 -0.000000 0.000002 -0.000001 0.000001 
-3.043516 40.779457 77.602997 22.609179 -24.592151 -5.534476 -0.000000 0.000000 -0.000000 3.521449 3.862606 -1.687403 90.045758 -15.185186 -1.198244 19.577001 -3.418675 -27.379657 -0.000002 0.000002 -0.000000 -0.000000 0.000003 -0.000001 -0.000000 -0.000000 0.000000 9.082927 9.374939 -11.416385 60.638358 12.384874 -13.861387 41.178476 6.807351 20.368459 0.000002 -0.000001 0.000000 -0.000000 0.000001 0.000000 0.000003 -0.000001 -0.000000 5.289769 0.495957 0.749354 -5.579771 1.386655 2.467674 -5.597969 1.382298 2.371570 -66.531725 0.851085 14.977234 14.412278 14.182148 -18.577607 -0.000001 0.000001 -0.000000 -0.000001 0.000001 -0.000000 -0.000001 0.000001 -0.000000 -0.000001 0.000001 -0.000000 -0.000001 0.000001 -0.000000 -0.000001 0.000001 -0.000000 -0.000001 0.000001 -0.000000 -0.000001 0.000001 -0.000000 -0.000001 0.000001 -0.000000 -0.000001 0.000001 -0.000000 -0.000001 0.000001 -0.000000 -0.000001 0.000001 -0.000000 -0.000001 0.000001 -0.000000 -0.000001 0.000001 -0.000000 -0.000001 0.000001 -0.000000 -0.000001 0.000001 -0.000000 -0.000001 0.000001 -0.000000 -0.000001 0.000001 -0.000000 -0.000001 0.000001 -0.000000 -19.324736 2.867694 -15.372843 11.222564 12.997944 -47.136095 70.495865 -22.629004 28.974468 -19.002102 22.383131 -3.511826 -0.855978 -7.156664 8.657860 2.728080 20.728668 -1.967482 0.000000 0.000002 0.000003 13.332677 -0.997543 13.243817 -0.170395 0.301672 -28.543905 0.000003 -0.000001 0.000000 8.537465 -0.353294 1.646222 0.217335 0.652114 -27.340054 0.000000 -0.000000 -0.000001 6.139184 3.122436 -13.651059 0.046415 0.305289 -27.563797 0.000003 0.000001 0.000001 -5.624739 7.695232 -11.318488 0.214611 0.268135 -44.026617 0.000001 -0.000001 0.000004 -0.000000 -0.000000 0.000003 -18.954769 2.720313 17.238105 8.007433 -1.543118 58.369021 156.553263 137.723579 -156.028937 51.277536 -11.257138 -6.118206 0.614083 8.437620 -11.229192 -1.155326 -12.479950 3.728704 -0.000000 -0.000001 -0.000004 19.438396 11.171115 -16.706472 -0.121721 -0.319666 14.668285 -0.000002 -0.000001 0.000001 4.375721 2.466764 -8.180839 0.331323 -0.448171 23.522970 -0.000001 0.000000 0.000000 -6.977127 -10.667848 2.358082 0.112696 -0.066685 22.788651 0.000001 -0.000000 0.000001 -19.422654 -20.226034 2.624314 0.213069 -0.072633 33.477322 -0.000000 0.000000 0.000001 0.000000 0.000006 0.000003 0.000000 -0.000002 0.000000 0.000000 -0.000002 0.000000 0.000000 -0.000002 0.000000 0.000000 -0.000002 0.000000 0.000000 -0.000002 0.000000 0.000000 -0.000002 0.000001 0.000000 -0.000001 -0.000000 0.000000 -0.000001 -0.000000 0.000000 0.000001 -0.000000 -0.000000 0.000000 -0.000000 
-3.010504 40.450974 78.523529 23.753817 -24.608292 -5.470787 -0.000001 0.000000 -0.000000 3.773784 2.933587 -2.306217 88.621315 -13.906506 -0.867084 19.784387 -3.498963 -27.625711 0.000000 0.000001 -0.000000 -0.000002 0.000001 -0.000001 0.000000 0.000002 0.000000 9.252093 9.004341 -11.322642 59.807042 12.286995 -13.564062 42.031495 7.002665 20.490568 0.000000 0.000000 -0.000001 0.000000 0.000000 -0.000000 -0.000001 -0.000000 -0.000001 5.262717 0.521931 0.806972 -5.663058 1.353725 2.575409 -5.679922 1.360148 2.479899 -67.748462 0.721244 15.041654 14.908421 14.198109 -18.680200 -0.000002 -0.000000 0.000002 -0.000002 -0.000000 0.000002 -0.000002 -0.000000 0.000002 -0.000002 -0.000000 0.000002 -0.000002 -0.000000 0.000002 -0.000002 -0.000000 0.000002 -0.000002 -0.000000 0.000002 -0.000002 -0.000000 0.000002 -0.000002 -0.000000 0.000002 -0.000002 -0.000000 0.000002 -0.000002 -0.000000 0.000002 -0.000002 -0.000000 0.000002 -0.000002 -0.000000 0.000002 -0.000002 -0.000000 0.000002 -0.000002 -0.000000 0.000002 -0.000002 -0.000000 0.000002 -0.000002 -0.000000 0.000002 -0.000002 -0.000000 0.000002 -0.000002 -0.000000 0.000002 -19.520754 3.090940 -14.887415 13.533067 12.286152 -45.847334 67.504699 -25.443303 27.159228 -20.419547 21.822104 -2.446595 -0.950521 -7.516237 8.582046 2.566210 20.394938 -1.999368 -0.000003 -0.000001 0.000000 13.329668 -0.994404 14.150519 -0.171354 0.301039 -27.637175 -0.000000 -0.000000 -0.000001 8.552608 -0.361248 2.552878 0.212462 0.648769 -26.433242 -0.000002 -0.000003 -0.000000 6.149230 3.112649 -12.744929 0.046337 0.299242 -26.657031 0.000001 0.000002 -0.000001 -5.620609 7.690175 -10.412289 0.211243 0.265060 -43.119852 0.000002 -0.000001 0.000002 -0.000001 0.000000 0.000003 -19.127492 2.546785 17.483029 8.238800 -0.098711 58.067994 160.341764 133.889835 -158.935702 44.865467 -12.163800 -5.670157 0.606827 8.469566 -11.222007 -1.352363 -12.093395 3.793156 -0.000000 0.000001 -0.000001 19.436748 11.170180 -17.752877 -0.122619 -0.318710 13.621603 -0.000003 -0.000005 0.000000 4.393244 2.475377 -9.228060 0.325900 -0.443943 22.476235 -0.000002 -0.000003 -0.000002 -6.967937 -10.659749 1.313157 0.113207 -0.059668 21.741926 -0.000002 -0.000000 -0.000002 -19.419172 -20.222368 1.578868 0.209900 -0.068441 32.430623 -0.000001 -0.000001 0.000000 -0.000003 0.000001 -0.000002 -0.000002 0.000000 -0.000000 -0.000002 0.000000 -0.000000 -0.000002 0.000000 -0.000000 -0.000002 0.000000 -0.000000 -0.000002 0.000000 -0.000000 -0.000002 0.000000 0.000000 -0.000002 0.000002 0.000001 -0.000002 0.000002 0.000001 -0.000000 0.000000 0.000000 -0.000001 0.000000 -0.000000 
